# xmcd
#
# Track frame offsets: 
#        150
#        13498
#        25311
#        34262
#        51515
#        63461
#        77342
#        101228
#        116913
#        137261
#        156137
#        169511
#        187445
#        200858
#        214402
#
# Disc length: 3030 seconds
#
# Revision: 5
# Processed by: cddbd v1.5.2PL0 Copyright (c) Steve Scherf et al.
# Submitted via: ExactAudioCopy v0.99pb5
#
DISCID=e50bd40f
DTITLE=Various Artist - Classic Country - TL XXD-02-CTC - Home For Christmas 
DTITLE=CD 2
DYEAR=2002
DGENRE=Country
TTITLE0=Michelle Wright - White Christmas
TTITLE1=Sammy Kershaw - Rudolph the red nosed reindeer
TTITLE2=Ricochet - Let it snow, let it snow, let it snow
TTITLE3=Restless Heart - Little drummer boy
TTITLE4=Tracy Byrd - Merry Christmas from Texas ya'all
TTITLE5=Blackhawk - We three kings (star of wonder)
TTITLE6=John Berry - O holy night
TTITLE7=Elmo and Patsy - Grandma got run over by a reindeer
TTITLE8=Collin Raye - The first Noel
TTITLE9=Lorrie Morgan feat. The New World Philharmonic - Up on Santa C
TTITLE9=laus mountain
TTITLE10=Kenny Chesney - Away in a manger
TTITLE11=Martina McBride - Do you hear what I hear
TTITLE12=Johnny Cash - O come all ye faithful
TTITLE13=Dwight Yoakam - Silver bells
TTITLE14=Travis Tritt - Winter wonderland
EXTD=
EXTT0=
EXTT1=
EXTT2=
EXTT3=
EXTT4=
EXTT5=
EXTT6=
EXTT7=
EXTT8=
EXTT9=
EXTT10=
EXTT11=
EXTT12=
EXTT13=
EXTT14=
PLAYORDER=
